Coordinates
version=1
nRows=7
nColumns=40
inDegrees=yes

Units are S.I. units (second, meters, Newtons, ...)
If the header above contains a line with 'inDegrees', this indicates whether rotational values are in degrees (yes) or radians (no).

endheader
time	pelvis_tilt	pelvis_list	pelvis_rotation	pelvis_tx	pelvis_ty	pelvis_tz	hip_flexion_r	hip_adduction_r	hip_rotation_r	knee_angle_r	knee_angle_r_beta	ankle_angle_r	subtalar_angle_r	mtp_angle_r	hip_flexion_l	hip_adduction_l	hip_rotation_l	knee_angle_l	knee_angle_l_beta	ankle_angle_l	subtalar_angle_l	mtp_angle_l	lumbar_extension	lumbar_bending	lumbar_rotation	arm_flex_r	arm_add_r	arm_rot_r	elbow_flex_r	pro_sup_r	wrist_flex_r	wrist_dev_r	arm_flex_l	arm_add_l	arm_rot_l	elbow_flex_l	pro_sup_l	wrist_flex_l	wrist_dev_l
      3.32000000	    -36.71941032	      3.87889351	      6.34033856	     -0.44804071	      0.59221967	     -0.92349701	    106.02532263	    -19.13408293	     14.95937323	    105.98673237	      1.84981744	     38.60384116	      0.00000000	      0.00000000	    105.55222050	     -9.12696311	      3.09025095	    101.73336336	      1.77558215	     33.23603924	      0.00000000	      0.00000000	    -36.49185885	     -1.26877399	     -2.48732343	    -27.58678645	    -59.16821282	     32.33000072	    105.08825227	     88.09224197	      0.00000000	      0.00000000	     11.29440541	    -67.97805673	     71.33832604	    110.05822124	     88.16057183	      0.00000000	      0.00000000
      3.32500000	    -36.76086623	      3.90523486	      6.36876514	     -0.44801261	      0.59207728	     -0.92361538	    106.09397848	    -19.14229612	     15.02488443	    105.99342022	      1.84993417	     38.35466253	      0.00000000	      0.00000000	    105.60227497	     -9.10042484	      3.05799671	    101.75321871	      1.77592869	     33.17197796	      0.00000000	      0.00000000	    -36.40996877	     -1.27439143	     -3.22335180	    -25.40029524	    -59.73386023	     34.70725686	    105.00538930	     88.16646503	      0.00000000	      0.00000000	      8.81030893	    -68.18939707	     69.00586394	    110.19136238	     88.15890487	      0.00000000	      0.00000000
      3.33000000	    -36.77903547	      3.86923878	      6.30708803	     -0.44804773	      0.59190340	     -0.92353600	    106.09789340	    -19.06640580	     14.98738539	    105.99475424	      1.84995745	     38.46978611	      0.00000000	      0.00000000	    105.64982996	     -9.17047488	      3.09914642	    101.78007972	      1.77639750	     33.20091197	      0.00000000	      0.00000000	    -36.41531546	     -1.33602092	     -1.85612660	    -29.12924743	    -58.72696538	     30.82485929	    105.17789870	     88.15114104	      0.00000000	      0.00000000	     14.70909280	    -67.84222994	     74.93961183	    110.02682678	     88.15218830	      0.00000000	      0.00000000
      3.33500000	    -36.84187415	      3.85127149	      6.37495373	     -0.44807026	      0.59173596	     -0.92375104	    106.17116199	    -19.13204490	     15.01801281	    106.00089902	      1.85006470	     38.46030636	      0.00000000	      0.00000000	    105.73275910	     -9.09022938	      3.09790802	    101.79837516	      1.77671682	     33.21243109	      0.00000000	      0.00000000	    -36.35037929	     -1.27840252	     -2.06125527	    -28.74642296	    -58.83961864	     31.20048474	    105.15986342	     88.15872413	      0.00000000	      0.00000000	     13.99415801	    -67.91516626	     74.23626056	    110.03770246	     88.16269655	      0.00000000	      0.00000000
      3.34000000	    -36.78943685	      3.88105138	      6.35578323	     -0.44785319	      0.59182599	     -0.92378304	    106.11587904	    -19.12859942	     15.02886859	    106.01789507	      1.85036133	     38.46477356	      0.00000000	      0.00000000	    105.64976205	     -9.13515401	      3.04597529	    101.79395567	      1.77663969	     33.20617292	      0.00000000	      0.00000000	    -36.43925811	     -1.31934030	     -1.84868016	    -29.27022047	    -58.69092892	     30.66550857	    105.18847134	     88.15309985	      0.00000000	      0.00000000	     14.93966160	    -67.80790526	     75.15778249	    109.98801152	     88.15549314	      0.00000000	      0.00000000
      3.34500000	    -36.83353239	      3.90423500	      6.34063776	     -0.44777319	      0.59168124	     -0.92378404	    106.17442326	    -19.09379519	     15.07539222	    106.03436761	      1.85064884	     38.43372439	      0.00000000	      0.00000000	    105.68574910	     -9.16258095	      3.01769814	    101.81682835	      1.77703889	     33.22867097	      0.00000000	      0.00000000	    -36.38872166	     -1.34218961	     -2.59556018	    -27.16993081	    -59.25262633	     32.86648667	    105.07880266	     88.15517083	      0.00000000	      0.00000000	     11.68128140	    -68.08465217	     71.91827440	    110.12824882	     88.15838689	      0.00000000	      0.00000000
      3.35000000	    -36.75083090	      3.86096292	      6.38651256	     -0.44753943	      0.59178225	     -0.92396221	    106.04834991	    -19.17576399	     15.03315552	    106.04055970	      1.85075691	     38.50003654	      0.00000000	      0.00000000	    105.61384410	     -9.11169227	      3.04138402	    101.82819172	      1.77723722	     33.20482397	      0.00000000	      0.00000000	    -36.52228696	     -1.24407662	     -2.70552446	    -27.09416096	    -59.30726581	     32.89121070	    105.13275831	     88.14265262	      0.00000000	      0.00000000	     10.93426495	    -68.11432395	     71.09244299	    110.11186327	     88.16244263	      0.00000000	      0.00000000
